<svg width="312" height="228" viewBox="0 0 312 228" fill="none" xmlns="http://www.w3.org/2000/svg">
<path fill-rule="evenodd" clip-rule="evenodd" d="M6.57312 0C2.94287 0 0 2.94287 0 6.57309V221.427C0 225.057 2.94287 228 6.57312 228H305.427C309.057 228 312 225.057 312 221.427V6.57312C312 2.94287 309.057 0 305.427 0H6.57312ZM284.324 148.208C289.064 137.381 291.325 125.902 291.325 113.509C291.325 101.117 289.064 89.6372 284.455 78.897C279.497 67.8524 273.192 58.4167 264.843 50.0681C256.711 41.9803 247.057 35.458 236.23 30.7184C225.185 25.9788 213.705 23.5003 201.311 23.5003H148.738L159.044 31.4576C165.567 38.0234 170.611 45.4155 174.177 53.6772H201.311C209.4 53.6772 217.27 55.286 224.489 58.1993C231.707 61.3301 238.23 65.8523 243.622 71.2441C249.232 76.8533 253.493 83.1583 256.668 90.3764C259.842 97.7684 261.408 105.465 261.408 113.553C261.408 121.64 259.842 129.293 256.668 136.729C253.537 143.947 249.232 150.252 243.84 155.861C238.448 161.47 231.925 165.732 224.706 168.906C217.488 171.863 209.617 173.428 201.268 173.428H142.433L122.734 138.99C133.301 134.729 142.085 127.51 149.086 117.379C156.261 107.248 159.653 95.9856 159.653 83.3757C159.653 66.9393 153.782 52.938 142.085 41.0237C130.344 29.3269 116.168 23.4568 99.7304 23.4568H20.6747L36.1989 50.242L39.5906 53.5902H99.7304C107.862 53.5902 114.82 56.5035 120.69 62.3737C126.778 68.2438 129.692 75.2445 129.692 83.3322C129.692 91.6809 126.778 98.8555 120.69 104.726C114.82 110.596 107.819 113.509 99.7304 113.509L72.9437 113.292L125.169 203.605H201.224C213.618 203.605 225.315 201.126 236.143 196.387C247.188 191.691 256.885 185.125 264.973 177.037C273.062 168.688 279.367 159.253 284.324 148.208Z" fill="#E54B4B"/>
</svg>
